<?xml version="1.0" encoding="UTF-8" standalone="no"?>
<!DOCTYPE svg PUBLIC "-//W3C//DTD SVG 1.1//EN"
 "http://www.w3.org/Graphics/SVG/1.1/DTD/svg11.dtd">
<!-- Generated by graphviz version 2.28.0 (20110507.0327)
 -->
<!-- Title: G Pages: 1 -->
<svg width="424pt" height="460pt"
 viewBox="0.00 0.00 424.00 460.00" xmlns="http://www.w3.org/2000/svg" xmlns:xlink="http://www.w3.org/1999/xlink">
<g id="graph1" class="graph" transform="scale(1 1) rotate(0) translate(4 456)">
<title>G</title>
<polygon fill="white" stroke="white" points="-4,5 -4,-456 421,-456 421,5 -4,5"/>
<!-- nodo53 -->
<g id="node1" class="node"><title>nodo53</title>
<ellipse fill="none" stroke="black" cx="271" cy="-414" rx="38.3379" ry="37.4533"/>
<text text-anchor="middle" x="271" y="-425.3" font-family="Times New Roman,serif" font-size="14.00">ID: 53 </text>
<text text-anchor="middle" x="271" y="-410.3" font-family="Times New Roman,serif" font-size="14.00">FE: &#45;1 </text>
<text text-anchor="middle" x="271" y="-395.3" font-family="Times New Roman,serif" font-size="14.00">H: 3 &#160;</text>
</g>
<!-- nodo21 -->
<g id="node2" class="node"><title>nodo21</title>
<ellipse fill="none" stroke="black" cx="223" cy="-302" rx="38.3379" ry="37.4533"/>
<text text-anchor="middle" x="223" y="-313.3" font-family="Times New Roman,serif" font-size="14.00">ID: 21 </text>
<text text-anchor="middle" x="223" y="-298.3" font-family="Times New Roman,serif" font-size="14.00">FE: 0 </text>
<text text-anchor="middle" x="223" y="-283.3" font-family="Times New Roman,serif" font-size="14.00">H: 2 &#160;</text>
</g>
<!-- nodo53&#45;&gt;nodo21 -->
<g id="edge2" class="edge"><title>nodo53&#45;&gt;nodo21</title>
<path fill="none" stroke="black" d="M256.207,-379.099C251.69,-368.748 246.661,-357.222 241.91,-346.336"/>
<polygon fill="black" stroke="black" points="245.034,-344.744 237.827,-336.979 238.619,-347.544 245.034,-344.744"/>
</g>
<!-- nodo93 -->
<g id="node13" class="node"><title>nodo93</title>
<ellipse fill="none" stroke="black" cx="319" cy="-302" rx="38.3379" ry="37.4533"/>
<text text-anchor="middle" x="319" y="-313.3" font-family="Times New Roman,serif" font-size="14.00">ID: 93 </text>
<text text-anchor="middle" x="319" y="-298.3" font-family="Times New Roman,serif" font-size="14.00">FE: 1 </text>
<text text-anchor="middle" x="319" y="-283.3" font-family="Times New Roman,serif" font-size="14.00">H: 1 &#160;</text>
</g>
<!-- nodo53&#45;&gt;nodo93 -->
<g id="edge4" class="edge"><title>nodo53&#45;&gt;nodo93</title>
<path fill="none" stroke="black" d="M285.793,-379.099C290.31,-368.748 295.339,-357.222 300.09,-346.336"/>
<polygon fill="black" stroke="black" points="303.381,-347.544 304.173,-336.979 296.966,-344.744 303.381,-347.544"/>
</g>
<!-- nodo6 -->
<g id="node3" class="node"><title>nodo6</title>
<ellipse fill="none" stroke="black" cx="127" cy="-190" rx="35.0343" ry="37.4533"/>
<text text-anchor="middle" x="127" y="-201.3" font-family="Times New Roman,serif" font-size="14.00">ID: 6 </text>
<text text-anchor="middle" x="127" y="-186.3" font-family="Times New Roman,serif" font-size="14.00">FE: 0 </text>
<text text-anchor="middle" x="127" y="-171.3" font-family="Times New Roman,serif" font-size="14.00">H: 1 &#160;</text>
</g>
<!-- nodo21&#45;&gt;nodo6 -->
<g id="edge6" class="edge"><title>nodo21&#45;&gt;nodo6</title>
<path fill="none" stroke="black" d="M198.527,-272.958C186.038,-258.648 170.726,-241.103 157.479,-225.924"/>
<polygon fill="black" stroke="black" points="159.977,-223.464 150.765,-218.231 154.703,-228.066 159.977,-223.464"/>
</g>
<!-- nodo49 -->
<g id="node8" class="node"><title>nodo49</title>
<ellipse fill="none" stroke="black" cx="223" cy="-190" rx="38.3379" ry="37.4533"/>
<text text-anchor="middle" x="223" y="-201.3" font-family="Times New Roman,serif" font-size="14.00">ID: 49 </text>
<text text-anchor="middle" x="223" y="-186.3" font-family="Times New Roman,serif" font-size="14.00">FE: 0 </text>
<text text-anchor="middle" x="223" y="-171.3" font-family="Times New Roman,serif" font-size="14.00">H: 1 &#160;</text>
</g>
<!-- nodo21&#45;&gt;nodo49 -->
<g id="edge8" class="edge"><title>nodo21&#45;&gt;nodo49</title>
<path fill="none" stroke="black" d="M223,-264.372C223,-255.927 223,-246.829 223,-238.011"/>
<polygon fill="black" stroke="black" points="226.5,-237.843 223,-227.844 219.5,-237.844 226.5,-237.843"/>
</g>
<!-- nodo5 -->
<g id="node4" class="node"><title>nodo5</title>
<ellipse fill="none" stroke="black" cx="35" cy="-78" rx="35.0343" ry="37.4533"/>
<text text-anchor="middle" x="35" y="-89.3" font-family="Times New Roman,serif" font-size="14.00">ID: 5 </text>
<text text-anchor="middle" x="35" y="-74.3" font-family="Times New Roman,serif" font-size="14.00">FE: 0 </text>
<text text-anchor="middle" x="35" y="-59.3" font-family="Times New Roman,serif" font-size="14.00">H: 0 &#160;</text>
</g>
<!-- nodo6&#45;&gt;nodo5 -->
<g id="edge10" class="edge"><title>nodo6&#45;&gt;nodo5</title>
<path fill="none" stroke="black" d="M104.022,-161.526C92.0568,-147.22 77.2919,-129.566 64.4928,-114.263"/>
<polygon fill="black" stroke="black" points="67.1045,-111.93 58.0041,-106.505 61.7349,-116.421 67.1045,-111.93"/>
</g>
<!-- nodo19 -->
<g id="node6" class="node"><title>nodo19</title>
<ellipse fill="none" stroke="black" cx="127" cy="-78" rx="38.3379" ry="37.4533"/>
<text text-anchor="middle" x="127" y="-89.3" font-family="Times New Roman,serif" font-size="14.00">ID: 19 </text>
<text text-anchor="middle" x="127" y="-74.3" font-family="Times New Roman,serif" font-size="14.00">FE: 0 </text>
<text text-anchor="middle" x="127" y="-59.3" font-family="Times New Roman,serif" font-size="14.00">H: 0 &#160;</text>
</g>
<!-- nodo6&#45;&gt;nodo19 -->
<g id="edge12" class="edge"><title>nodo6&#45;&gt;nodo19</title>
<path fill="none" stroke="black" d="M127,-152.372C127,-143.927 127,-134.829 127,-126.011"/>
<polygon fill="black" stroke="black" points="130.5,-125.843 127,-115.844 123.5,-125.844 130.5,-125.843"/>
</g>
<!-- null0 -->
<g id="node5" class="node"><title>null0</title>
<ellipse fill="black" stroke="black" cx="24" cy="-2" rx="1.8" ry="1.8"/>
</g>
<!-- nodo5&#45;&gt;null0 -->
<g id="edge20" class="edge"><title>nodo5&#45;&gt;null0</title>
<path fill="none" stroke="black" d="M29.6289,-40.8671C28.1591,-30.9796 26.6771,-21.0094 25.6029,-13.7831"/>
<polygon fill="black" stroke="black" points="29.0597,-13.2333 24.1273,-3.85665 22.1358,-14.2626 29.0597,-13.2333"/>
</g>
<!-- null1 -->
<g id="node17" class="node"><title>null1</title>
<ellipse fill="black" stroke="black" cx="46" cy="-2" rx="1.8" ry="1.8"/>
</g>
<!-- nodo5&#45;&gt;null1 -->
<g id="edge22" class="edge"><title>nodo5&#45;&gt;null1</title>
<path fill="none" stroke="black" d="M40.3711,-40.8671C41.8409,-30.9796 43.3229,-21.0094 44.3971,-13.7831"/>
<polygon fill="black" stroke="black" points="47.8642,-14.2626 45.8727,-3.85665 40.9403,-13.2333 47.8642,-14.2626"/>
</g>
<!-- null2 -->
<g id="node7" class="node"><title>null2</title>
<ellipse fill="black" stroke="black" cx="116" cy="-2" rx="1.8" ry="1.8"/>
</g>
<!-- nodo19&#45;&gt;null2 -->
<g id="edge24" class="edge"><title>nodo19&#45;&gt;null2</title>
<path fill="none" stroke="black" d="M121.629,-40.8671C120.159,-30.9796 118.677,-21.0094 117.603,-13.7831"/>
<polygon fill="black" stroke="black" points="121.06,-13.2333 116.127,-3.85665 114.136,-14.2626 121.06,-13.2333"/>
</g>
<!-- null3 -->
<g id="node18" class="node"><title>null3</title>
<ellipse fill="black" stroke="black" cx="138" cy="-2" rx="1.8" ry="1.8"/>
</g>
<!-- nodo19&#45;&gt;null3 -->
<g id="edge26" class="edge"><title>nodo19&#45;&gt;null3</title>
<path fill="none" stroke="black" d="M132.371,-40.8671C133.841,-30.9796 135.323,-21.0094 136.397,-13.7831"/>
<polygon fill="black" stroke="black" points="139.864,-14.2626 137.873,-3.85665 132.94,-13.2333 139.864,-14.2626"/>
</g>
<!-- nodo25 -->
<g id="node9" class="node"><title>nodo25</title>
<ellipse fill="none" stroke="black" cx="223" cy="-78" rx="38.3379" ry="37.4533"/>
<text text-anchor="middle" x="223" y="-89.3" font-family="Times New Roman,serif" font-size="14.00">ID: 25 </text>
<text text-anchor="middle" x="223" y="-74.3" font-family="Times New Roman,serif" font-size="14.00">FE: 0 </text>
<text text-anchor="middle" x="223" y="-59.3" font-family="Times New Roman,serif" font-size="14.00">H: 0 &#160;</text>
</g>
<!-- nodo49&#45;&gt;nodo25 -->
<g id="edge14" class="edge"><title>nodo49&#45;&gt;nodo25</title>
<path fill="none" stroke="black" d="M223,-152.372C223,-143.927 223,-134.829 223,-126.011"/>
<polygon fill="black" stroke="black" points="226.5,-125.843 223,-115.844 219.5,-125.844 226.5,-125.843"/>
</g>
<!-- nodo51 -->
<g id="node11" class="node"><title>nodo51</title>
<ellipse fill="none" stroke="black" cx="319" cy="-78" rx="38.3379" ry="37.4533"/>
<text text-anchor="middle" x="319" y="-89.3" font-family="Times New Roman,serif" font-size="14.00">ID: 51 </text>
<text text-anchor="middle" x="319" y="-74.3" font-family="Times New Roman,serif" font-size="14.00">FE: 0 </text>
<text text-anchor="middle" x="319" y="-59.3" font-family="Times New Roman,serif" font-size="14.00">H: 0 &#160;</text>
</g>
<!-- nodo49&#45;&gt;nodo51 -->
<g id="edge16" class="edge"><title>nodo49&#45;&gt;nodo51</title>
<path fill="none" stroke="black" d="M247.473,-160.958C259.773,-146.865 274.81,-129.634 287.918,-114.615"/>
<polygon fill="black" stroke="black" points="290.633,-116.827 294.571,-106.991 285.359,-112.224 290.633,-116.827"/>
</g>
<!-- null4 -->
<g id="node10" class="node"><title>null4</title>
<ellipse fill="black" stroke="black" cx="212" cy="-2" rx="1.8" ry="1.8"/>
</g>
<!-- nodo25&#45;&gt;null4 -->
<g id="edge28" class="edge"><title>nodo25&#45;&gt;null4</title>
<path fill="none" stroke="black" d="M217.629,-40.8671C216.159,-30.9796 214.677,-21.0094 213.603,-13.7831"/>
<polygon fill="black" stroke="black" points="217.06,-13.2333 212.127,-3.85665 210.136,-14.2626 217.06,-13.2333"/>
</g>
<!-- null5 -->
<g id="node19" class="node"><title>null5</title>
<ellipse fill="black" stroke="black" cx="234" cy="-2" rx="1.8" ry="1.8"/>
</g>
<!-- nodo25&#45;&gt;null5 -->
<g id="edge30" class="edge"><title>nodo25&#45;&gt;null5</title>
<path fill="none" stroke="black" d="M228.371,-40.8671C229.841,-30.9796 231.323,-21.0094 232.397,-13.7831"/>
<polygon fill="black" stroke="black" points="235.864,-14.2626 233.873,-3.85665 228.94,-13.2333 235.864,-14.2626"/>
</g>
<!-- null6 -->
<g id="node12" class="node"><title>null6</title>
<ellipse fill="black" stroke="black" cx="308" cy="-2" rx="1.8" ry="1.8"/>
</g>
<!-- nodo51&#45;&gt;null6 -->
<g id="edge32" class="edge"><title>nodo51&#45;&gt;null6</title>
<path fill="none" stroke="black" d="M313.629,-40.8671C312.159,-30.9796 310.677,-21.0094 309.603,-13.7831"/>
<polygon fill="black" stroke="black" points="313.06,-13.2333 308.127,-3.85665 306.136,-14.2626 313.06,-13.2333"/>
</g>
<!-- null7 -->
<g id="node20" class="node"><title>null7</title>
<ellipse fill="black" stroke="black" cx="330" cy="-2" rx="1.8" ry="1.8"/>
</g>
<!-- nodo51&#45;&gt;null7 -->
<g id="edge34" class="edge"><title>nodo51&#45;&gt;null7</title>
<path fill="none" stroke="black" d="M324.371,-40.8671C325.841,-30.9796 327.323,-21.0094 328.397,-13.7831"/>
<polygon fill="black" stroke="black" points="331.864,-14.2626 329.873,-3.85665 324.94,-13.2333 331.864,-14.2626"/>
</g>
<!-- null8 -->
<g id="node14" class="node"><title>null8</title>
<ellipse fill="black" stroke="black" cx="319" cy="-190" rx="1.8" ry="1.8"/>
</g>
<!-- nodo93&#45;&gt;null8 -->
<g id="edge36" class="edge"><title>nodo93&#45;&gt;null8</title>
<path fill="none" stroke="black" d="M319,-264.372C319,-242.622 319,-216.543 319,-202.067"/>
<polygon fill="black" stroke="black" points="322.5,-202.049 319,-192.049 315.5,-202.049 322.5,-202.049"/>
</g>
<!-- nodo94 -->
<g id="node15" class="node"><title>nodo94</title>
<ellipse fill="none" stroke="black" cx="378" cy="-190" rx="38.3379" ry="37.4533"/>
<text text-anchor="middle" x="378" y="-201.3" font-family="Times New Roman,serif" font-size="14.00">ID: 94 </text>
<text text-anchor="middle" x="378" y="-186.3" font-family="Times New Roman,serif" font-size="14.00">FE: 0 </text>
<text text-anchor="middle" x="378" y="-171.3" font-family="Times New Roman,serif" font-size="14.00">H: 0 &#160;</text>
</g>
<!-- nodo93&#45;&gt;nodo94 -->
<g id="edge18" class="edge"><title>nodo93&#45;&gt;nodo94</title>
<path fill="none" stroke="black" d="M336.542,-268.294C342.551,-257.091 349.357,-244.402 355.692,-232.591"/>
<polygon fill="black" stroke="black" points="358.781,-234.237 360.424,-223.77 352.612,-230.928 358.781,-234.237"/>
</g>
<!-- null9 -->
<g id="node16" class="node"><title>null9</title>
<ellipse fill="black" stroke="black" cx="378" cy="-78" rx="1.8" ry="1.8"/>
</g>
<!-- nodo94&#45;&gt;null9 -->
<g id="edge38" class="edge"><title>nodo94&#45;&gt;null9</title>
<path fill="none" stroke="black" d="M378,-152.372C378,-130.622 378,-104.543 378,-90.0668"/>
<polygon fill="black" stroke="black" points="381.5,-90.049 378,-80.0491 374.5,-90.0491 381.5,-90.049"/>
</g>
<!-- null10 -->
<g id="node21" class="node"><title>null10</title>
<ellipse fill="black" stroke="black" cx="400" cy="-78" rx="1.8" ry="1.8"/>
</g>
<!-- nodo94&#45;&gt;null10 -->
<g id="edge40" class="edge"><title>nodo94&#45;&gt;null10</title>
<path fill="none" stroke="black" d="M385.204,-152.982C389.565,-131.177 394.833,-104.835 397.761,-90.1974"/>
<polygon fill="black" stroke="black" points="401.258,-90.5544 399.788,-80.0622 394.394,-89.1816 401.258,-90.5544"/>
</g>
</g>
</svg>
